
        <svg xmlns="http://www.w3.org/2000/svg" xmlns:xlink="http://www.w3.org/1999/xlink" version="1.1" width="3170.4545454545455" 
        height="968.1818181818184" viewBox="0 0 3170.4545454545455 968.1818181818184">
			<rect fill="#ffffff" width="3170.4545454545455" height="968.1818181818184"/>
			<g transform="scale(8.522727272727273) translate(10, 10)">
				<defs id="SvgjsDefs7798"><linearGradient id="SvgjsLinearGradient7803"><stop id="SvgjsStop7804" stop-color="#ef4136" offset="0"></stop><stop id="SvgjsStop7805" stop-color="#fbb040" offset="1"></stop></linearGradient><linearGradient id="SvgjsLinearGradient7806"><stop id="SvgjsStop7807" stop-color="#ef4136" offset="0"></stop><stop id="SvgjsStop7808" stop-color="#fbb040" offset="1"></stop></linearGradient></defs><g id="SvgjsG7799" featureKey="symbolFeature-0" transform="matrix(-1.1700000000000002,0,0,1.1700000000000002,99.45000000000002,-11.700000000000003)" fill="url(#SvgjsLinearGradient7803)"><path xmlns="http://www.w3.org/2000/svg" d="M50,10L15,30v40l35,20l34.99-19.994L85,69.99V30L50,10z M50,17.699L74.89,31.92l-6.732,3.848L50,25.397L31.846,35.771  l-6.738-3.851L50,17.699z M64.795,41.546v13.059L53.369,48.08V35.02L64.795,41.546z M46.631,35.02v13.057l-11.423,6.527V41.546  L46.631,35.02z M46.631,80.377L21.735,66.152v-28.46l6.734,3.848v20.761L46.631,72.68V80.377z M38.571,60.377l11.426-6.529  l11.429,6.529L50,66.904L38.571,60.377z M78.265,66.152L53.369,80.377V72.68L71.53,62.305V41.54l6.734-3.848V66.152z"></path></g><g id="SvgjsG7800" featureKey="nameFeature-0" transform="matrix(0.8906690672981371,0,0,0.8906690672981371,100.67789101861577,29.88648359133598)" fill="url(#SvgjsLinearGradient7806)"><path d="M7.5 1.4059999999999988 l-6.0156 0 l7.5781 37.188 l6.5625 0 l-4.8438 -22.891 z M32.813 1.4059999999999988 l-4.375 15.547 l2.9688 11.328 l7.1875 -26.875 l-5.7813 0 z M23.359 12.812000000000001 l-0.46875 -1.9531 l-2.5 -9.4531 l-3.3594 11.094 l-0.15625 0.3125 l-1.25 4.375 l2.3438 10.469 l1.4844 -5.1563 l3.8281 16.094 l6.6406 0 l-5.7813 -22.891 z M47.0938 1.4059999999999988 l27.813 0 l0 5.9375 l-27.813 0 l0 -5.9375 z M47.0938 32.6562 l27.734 0 l0 5.9375 l-27.734 0 l0 -5.9375 z M47.0938 16.875 l25.078 0 l0 5.8594 l-25.078 0 l0 -5.8594 z M116.60900000000001 25 c-0.36461 -0.98961 -0.88531 -1.8488 -1.5624 -2.578 c-0.46875 -0.52086 -1.224 -1.1198 -2.2656 -1.797 c-1.1459 -0.57289 -2.1615 -1.0156 -3.0469 -1.3281 c0.625 -0.36461 1.3021 -0.78125 2.0313 -1.25 c0.72914 -0.625 1.276 -1.224 1.6406 -1.7969 c0.46875 -0.625 0.85938 -1.3802 1.1719 -2.2656 c0.3125 -0.9375 0.46875 -1.9531 0.46875 -3.0469 c0 -2.9166 -1.0938 -5.2344 -3.2813 -6.9531 s-5.1563 -2.5781 -8.9063 -2.5781 l-14.453 0 l0 5.7813 l13.672 0 c1.9791 0 3.5938 0.41664 4.8438 1.25 c1.0938 0.83336 1.6406 2.0313 1.6406 3.5938 c0 1.7709 -0.625 3.0469 -1.875 3.8281 c-1.3021 0.83336 -2.9948 1.25 -5.0782 1.25 l-13.203 0 l0 5.4688 l14.609 0 c2.5 0 4.401 0.44273 5.7031 1.3281 c1.25 0.9375 1.875 2.1875 1.875 3.75 c0 1.6666 -0.625 2.9427 -1.875 3.828 c-1.3021 0.88539 -3.0469 1.3281 -5.2344 1.3281 l-15.078 0 l0 5.7813 l15 0 c2.0313 0 3.9063 -0.23438 5.625 -0.70313 c1.7709 -0.52086 3.2031 -1.1719 4.2969 -1.9531 s2.0313 -1.849 2.8125 -3.2031 c0.625 -1.25 0.9375 -2.7084 0.9375 -4.375 c0 -1.3021 -0.15625 -2.4219 -0.46875 -3.3594 z M155.813 27.344 c-0.98961 2.3959 -2.3438 4.375 -4.0625 5.9375 c-1.7709 1.6666 -3.8542 2.9688 -6.2501 3.9063 s-5.0781 1.4063 -8.0469 1.4063 l-8.6719 0 l0 -5.9375 l8.5938 0 c1.9791 0 3.776 -0.3125 5.3906 -0.9375 c1.5625 -0.625 2.9166 -1.5104 4.0625 -2.6563 s2.0313 -2.5 2.6563 -4.0625 s0.9375 -3.2813 0.9375 -5.1563 c0 -1.8229 -0.3125 -3.5156 -0.9375 -5.0781 c-0.625 -1.6146 -1.5104 -2.9427 -2.6563 -3.9844 c-1.0416 -1.0938 -2.3958 -1.9791 -4.0624 -2.6563 c-1.6666 -0.625 -3.4635 -0.9375 -5.3906 -0.9375 l-8.5938 0 l0 -5.9375 l8.6719 0 c2.7604 0 5.4166 0.49477 7.9688 1.4844 c2.3959 0.88539 4.5052 2.2135 6.3281 3.9844 c1.7709 1.6146 3.125 3.5938 4.0625 5.9375 c0.98961 2.3959 1.4844 4.8438 1.4844 7.3438 c0 2.7084 -0.49477 5.1563 -1.4844 7.3438 z M194.703 38.5937 l7.0313 0 l-13.594 -37.266 l-7.1094 0 l7.8906 22.266 z M165.9531 38.5937 l6.875 0 l8.125 -19.844 l-3.3594 -8.9063 z M235.703 38.5937 l7.0313 0 l-13.594 -37.266 l-7.1094 0 l7.8906 22.266 z M206.9531 38.5937 l6.875 0 l8.125 -19.844 l-3.3594 -8.9063 z M249.8281 38.5937 l6.4844 0 l0 -19.922 l-6.4844 -9.1406 l0 29.063 z M275.766 1.4059999999999988 l0 25.703 l-18.359 -25.703 l-7.0313 0 l26.406 37.188 l5.3906 0 l0 -37.188 l-6.4063 0 z"></path></g>
			</g>
		</svg>
	